<?xml version="1.0" encoding="utf-8"?>
<!-- Generator: Adobe Illustrator 16.0.0, SVG Export Plug-In . SVG Version: 6.00 Build 0)  -->
<!DOCTYPE svg PUBLIC "-//W3C//DTD SVG 1.1//EN" "http://www.w3.org/Graphics/SVG/1.1/DTD/svg11.dtd">
<svg version="1.1" id="Layer_1" xmlns="http://www.w3.org/2000/svg" xmlns:xlink="http://www.w3.org/1999/xlink" x="0px" y="0px"
	 width="256px" height="256px" viewBox="0 0 256 256" enable-background="new 0 0 256 256" xml:space="preserve">
<g>
	<path fill="#333333" d="M230.406,68.638c-5.78,12.874-15.842,17.405-29.725,17.28c-47.49-0.425-94.985-0.102-142.478-0.2
		c-16.555-0.034-26.25-8.236-26.599-21.979c-0.336-13.308,8.596-23.26,22.01-23.724c12.081-0.419,24.188-0.304,36.278-0.079
		c4.905,0.089,8.016-0.693,9.679-6.224c3.4-11.308,12.825-16.948,22.755-21.772c5.314,0,10.631,0,15.944,0
		c11.572,4.732,20.586,11.89,24.735,24.357c0.576,1.73,4.317,3.315,6.647,3.395c10.55,0.363,21.152,0.692,31.674,0.031
		c13.586-0.853,23.189,4.305,29.076,16.512C230.406,60.369,230.406,64.504,230.406,68.638z M130.275,50.636
		c-24.493,0-48.986-0.062-73.48,0.035c-8.625,0.034-13.809,4.414-14.052,11.359c-0.253,7.198,5.258,12.076,14.232,12.088
		c48.988,0.063,97.976,0.061,146.962,0.007c9.477-0.01,15.221-4.919,14.978-12.385c-0.229-6.989-5.667-11.068-15.158-11.089
		C179.266,50.594,154.771,50.631,130.275,50.636z M150.4,39.334c-2.567-10.253-9.771-15.972-19.584-16.092
		c-9.903-0.123-17.71,5.869-20.43,16.092C123.601,39.334,136.691,39.334,150.4,39.334z"/>
	<path fill="#333333" d="M76.26,238.73c-19.271-8.27-26.076-22.914-25.229-43.623c1.18-28.854,0.292-57.795,0.308-86.7
		c0-2.354-0.588-5.109,0.421-6.955c1.042-1.909,3.611-3.836,5.68-4.039c1.428-0.138,3.899,2.37,4.54,4.181
		c0.844,2.378,0.416,5.234,0.418,7.885c0.017,30.083-0.01,60.167,0.019,90.251c0.019,19.438,8.06,27.688,27.198,27.738
		c27.429,0.073,54.859,0.082,82.289-0.004c18.652-0.059,26.662-8.288,26.677-27.172c0.022-30.378,0.006-60.758,0.01-91.137
		c0-2.064-0.626-4.469,0.218-6.111c1.172-2.277,3.457-3.983,5.266-5.933c1.896,1.822,4.4,3.341,5.5,5.558
		c0.949,1.916,0.35,4.624,0.35,6.98c0.012,28.316-0.806,56.661,0.277,84.933c0.802,20.968-5.908,36.056-25.858,44.146
		C148.313,238.73,112.287,238.73,76.26,238.73z"/>
	<path fill="#333333" d="M85.192,158.121c0.001-14.742,0.037-29.484-0.02-44.227c-0.018-4.421,0.371-9.291,6.008-8.338
		c2.18,0.369,5.071,5.32,5.109,8.219c0.379,29.184,0.405,58.375-0.015,87.559c-0.045,3.104-3.208,8.432-5.532,8.789
		c-5.874,0.904-5.533-4.521-5.542-8.662C85.174,187.016,85.192,172.568,85.192,158.121z"/>
	<path fill="#333333" d="M124.896,158.121c0-14.742,0.036-29.484-0.02-44.227c-0.018-4.421,0.371-9.291,6.008-8.338
		c2.181,0.369,5.071,5.32,5.11,8.219c0.379,29.184,0.404,58.375-0.016,87.559c-0.047,3.104-3.209,8.432-5.531,8.789
		c-5.875,0.904-5.533-4.521-5.542-8.662C124.877,187.016,124.895,172.568,124.896,158.121z"/>
	<path fill="#333333" d="M164.725,157.518c0.002-14.437,0-28.871,0.004-43.308c0-4.191-0.274-9.397,5.629-8.599
		c2.135,0.289,5.166,5.184,5.203,8.009c0.381,29.456,0.383,58.919,0.004,88.375c-0.037,2.877-2.98,7.804-5.178,8.171
		c-6.048,1.007-5.644-4.326-5.648-8.46C164.706,186.977,164.725,172.246,164.725,157.518z"/>
</g>
</svg>
